<svg xmlns="http://www.w3.org/2000/svg" version="1.1" xmlns:xlink="http://www.w3.org/1999/xlink" xmlns:svgjs="http://svgjs.dev/svgjs" width="1000" height="623" viewBox="0 0 1000 623"><g transform="matrix(1,0,0,1,-0.6060606060606233,0.2522267206477409)"><svg viewBox="0 0 396 247" data-background-color="#1b4571" preserveAspectRatio="xMidYMid meet" height="623" width="1000" xmlns="http://www.w3.org/2000/svg" xmlns:xlink="http://www.w3.org/1999/xlink"><g id="tight-bounds" transform="matrix(1,0,0,1,0.2400000000000091,-0.09999999999999432)"><svg viewBox="0 0 395.52 247.2" height="247.2" width="395.52"><g><svg></svg></g><g><svg viewBox="0 0 395.52 247.2" height="247.2" width="395.52"><mask id="0d7b7d7d-0e73-4d39-a273-53fd38ae5c09"><rect width="640" height="400" fill="white"></rect><rect width="348.05760000000004" height="50.593410430235025" fill="black" y="98.30329478488248" x="23.731199999999973" id="transform-me"></rect></mask><g transform="matrix(1,0,0,1,39.55199999999999,106.41651268678946)"><svg viewBox="0 0 316.416 34.36697462642107" height="34.36697462642107" width="316.416"><g><svg viewBox="0 0 316.416 34.36697462642107" height="34.36697462642107" width="316.416"><g><svg viewBox="0 0 316.416 34.36697462642107" height="34.36697462642107" width="316.416"><g id="textblocktransform"><svg viewBox="0 0 316.416 34.36697462642107" height="34.36697462642107" width="316.416" id="textblock"><g><svg viewBox="0 0 316.416 34.36697462642107" height="34.36697462642107" width="316.416"><g transform="matrix(1,0,0,1,0,0)"><svg width="316.416" viewBox="4.579999923706055 -33.75224685668945 314.8800048828125 34.21224594116211" height="34.36697462642107" data-palette-color="#ffffff"><path d="M8.14-21.16L8.14-21.16 8.14 0 4.58 0 4.58-33.27 10.39-33.27 20.93-5.81 21.11-5.81 31.72-33.27 37.51-33.27 37.51 0 33.65 0 33.65-21.44Q33.65-25.28 33.97-29.45L33.97-29.45 33.77-29.45 22.4 0 19.29 0 8.01-29.47 7.84-29.47Q8.14-25.99 8.14-21.16ZM55.36-24.37L51.44-14.05 62.18-14.05 58.31-24.37Q57.53-26.49 56.77-29.17L56.77-29.17Q56.32-27.1 55.36-24.37L55.36-24.37ZM58.47-33.39L71.53 0 67.54 0 63.39-10.57 50.07-10.57 45.98 0 42.06 0 55.2-33.39 58.47-33.39ZM98.48-14.18L98.48-33.27 102.09-33.27 102.09 0 97.67 0 79.49-27.91 79.32-27.91Q79.67-22.83 79.67-18.91L79.67-18.91 79.67 0 76.11 0 76.11-33.27 80.48-33.27 98.6-5.46 98.78-5.46Q98.4-12.01 98.48-14.18L98.48-14.18ZM119.96-24.37L116.04-14.05 126.79-14.05 122.92-24.37Q122.14-26.49 121.38-29.17L121.38-29.17Q120.92-27.1 119.96-24.37L119.96-24.37ZM123.07-33.39L136.14 0 132.15 0 128-10.57 114.68-10.57 110.58 0 106.67 0 119.81-33.39 123.07-33.39ZM161.85-13.98L154.41-13.98 154.41-17.42 165.71-17.42 165.71-1.24Q162.98-0.38 160.25 0.04 157.52 0.46 154.01 0.46L154.01 0.46Q146.43 0.46 142.23-4.03 138.03-8.52 138.03-16.63L138.03-16.63Q137.98-21.79 140.09-25.7 142.2-29.6 146.15-31.71 150.09-33.82 155.3-33.75L155.3-33.75Q160.63-33.75 165.21-31.77L165.21-31.77 163.72-28.36Q159.24-30.28 155.05-30.28L155.05-30.28Q148.95-30.28 145.54-26.67 142.13-23.05 142.13-16.47 142.13-9.88 145.43-6.41 148.73-2.93 155.1-2.93L155.1-2.93Q158.48-2.93 161.85-3.74L161.85-3.74 161.85-13.98ZM177.57-3.46L192.23-3.46 192.23 0 173.7 0 173.7-33.27 192.23-33.27 192.23-29.83 177.57-29.83 177.57-19.11 191.34-19.11 191.34-15.7 177.57-15.7 177.57-3.46ZM227.28-30.28L227.28-30.28Q221.8-30.28 218.63-26.62 215.45-22.95 215.45-16.52 215.45-10.09 218.51-6.53 221.57-2.98 227.23-2.98L227.23-2.98Q230.77-2.98 235.19-4.22L235.19-4.22 235.19-0.83Q231.73 0.46 226.65 0.46L226.65 0.46Q219.29 0.46 215.3-3.99L215.3-3.99Q211.31-8.49 211.31-16.68L211.31-16.68Q211.28-20.48 212.41-23.67 213.53-26.87 215.6-29.1 217.68-31.32 220.69-32.55 223.69-33.77 227.33-33.75L227.33-33.75Q232.62-33.75 236.48-31.83L236.48-31.83 234.84-28.51Q231.13-30.28 227.28-30.28ZM251.17-24.37L247.25-14.05 257.99-14.05 254.13-24.37Q253.34-26.49 252.58-29.17L252.58-29.17Q252.13-27.1 251.17-24.37L251.17-24.37ZM254.28-33.39L267.35 0 263.35 0 259.21-10.57 245.88-10.57 241.79 0 237.87 0 251.02-33.39 254.28-33.39ZM280.82-29.88L275.79-29.88 275.79-17.16 281.09-17.16Q285.16-17.16 287.09-18.77 289.01-20.37 289.01-23.66 289.01-26.95 287.06-28.41 285.11-29.88 280.82-29.88L280.82-29.88ZM282.71-13.83L275.79-13.83 275.79 0 271.92 0 271.92-33.27 281.04-33.27Q287.14-33.27 290.07-30.93 293-28.59 293-23.86L293-23.86Q293-17.24 286.33-14.94L286.33-14.94 295.35 0 290.78 0 282.71-13.83ZM319.46-8.85L319.46-8.85Q319.46-4.45 316.29-2 313.12 0.46 307.42 0.46 301.72 0.46 298.53-1.06L298.53-1.06 298.53-4.8Q303.03-2.93 307.79-2.93L307.79-2.93Q311.6-2.93 313.59-4.37 315.57-5.81 315.57-8.49L315.57-8.49Q315.57-10.21 314.88-11.3 314.18-12.39 312.54-13.35 310.9-14.31 307.61-15.47L307.61-15.47Q302.98-17.11 300.97-19.39 298.96-21.66 298.96-25.43 298.96-29.2 301.85-31.47L301.85-31.47Q304.78-33.75 309.62-33.75 314.46-33.75 318.63-31.93L318.63-31.93 317.42-28.54Q313.3-30.28 309.43-30.28L309.43-30.28Q306.35-30.28 304.61-28.96 302.88-27.63 302.88-25.3L302.88-25.3Q302.88-23.53 303.5-22.47 304.12-21.41 305.66-20.42L305.66-20.42Q307.26-19.46 310.31-18.4L310.31-18.4Q315.57-16.53 317.49-14.38L317.49-14.38Q319.46-12.26 319.46-8.85Z" opacity="1" transform="matrix(1,0,0,1,0,0)" fill="#ffffff" class="wordmark-text-0" data-fill-palette-color="primary" id="text-0"></path></svg></g></svg></g></svg></g></svg></g></svg></g></svg></g><g mask="url(#0d7b7d7d-0e73-4d39-a273-53fd38ae5c09)"><g transform="matrix(3.9503401778284615, 0, 0, 3.9503401778284615, 1, 69.63979289674131)"><svg xmlns="http://www.w3.org/2000/svg" xmlns:xlink="http://www.w3.org/1999/xlink" version="1.1" x="0" y="0" viewBox="0.040260061621665955 34.641727447509766 99.61673736572266 27.319271087646484" enable-background="new 0 0 100 100" xml:space="preserve" height="27.319271087646484" width="99.61673736572266" class="icon-none" data-fill-palette-color="accent" id="none"><path fill="#bf2051" d="M72.502 53.293c0-4.788 3.88-8.668 8.667-8.668 4.788 0 8.67 3.88 8.67 8.668 0 4.787-3.882 8.668-8.67 8.668C76.382 61.961 72.502 58.08 72.502 53.293zM76.704 57.895c-0.113-0.098-0.25-0.115-0.322-0.035-0.079 0.086-0.049 0.266 0.062 0.396 1.207 1.438 2.871 2.329 4.707 2.334 1.834-0.005 3.498-0.896 4.703-2.334 0.111-0.13 0.143-0.31 0.062-0.396-0.07-0.08-0.208-0.062-0.323 0.035-1.212 1.104-2.758 1.764-4.446 1.767C79.462 59.657 77.917 58.997 76.704 57.895zM69.303 53.168c-0.881-0.014-1.771-0.02-2.668-0.02-6.992 0-13.527 0.408-19.084 1.113 6.077-0.246 13.713-0.289 21.76 0.319-0.02-0.252-0.025-0.504-0.025-0.759C69.284 53.604 69.289 53.386 69.303 53.168zM63.896 36.096c-8.375-0.817-15.951-0.683-21.05 1.306-3.291 1.282-6.469 2.617-11.126 4.479 7.314 0 28.246 0.049 28.246 0.049 3.854 0 5.079-2.149 5.839-2.138 15.396 0.256 30.123 2.446 33.654 3.005-0.325 1.354-1.797 6.151-5.984 9.98-2.195 2.322 0.61 3.662-0.283 3.818h-2.916c0.375-1.031 0.578-2.145 0.578-3.304 0-5.349-4.336-9.685-9.686-9.685-5.348 0-9.684 4.336-9.684 9.685 0 1.453 0.32 2.832 0.894 4.067-19.646-1.924-37.702 0.371-37.702 0.371l-8.217 1.691c1.367-1.671 2.187-3.805 2.187-6.131 0-5.349-4.335-9.685-9.683-9.685-5.349 0-9.685 4.336-9.685 9.685 0 2.135 0.691 4.109 1.863 5.712C6.264 58.74 2.294 58.45 0.224 57.209c-1.22-0.718 4.154-0.71 0.974-8.258h7.07c0.552 0 1.001-0.45 1.001-1.003v-0.079H0.706c-0.097-0.2-0.198-0.404-0.306-0.613 6.175-4.294 13.646-5.859 22.963-5.859 3.699-0.147 6.614-0.763 9.255-1.574 3.679-1.399 7.489-2.793 9.773-3.588 13.003-4.529 39.9 1.622 57.266 5.717 0 0-0.13 0.591-0.188 0.791-4.923-1.071-18.416-3.701-33.896-4.262-0.046-0.002-0.688-1.126-1.501-2.167C64.016 36.241 63.957 36.167 63.896 36.096zM14.498 57.895c-0.113-0.098-0.251-0.115-0.322-0.035-0.079 0.086-0.048 0.266 0.062 0.396 1.207 1.438 2.871 2.329 4.708 2.334 1.831-0.005 3.495-0.896 4.702-2.334 0.111-0.13 0.143-0.31 0.062-0.396-0.072-0.08-0.209-0.062-0.322 0.035-1.213 1.104-2.758 1.764-4.447 1.767C17.256 59.657 15.712 58.997 14.498 57.895zM10.296 53.293c0-4.788 3.881-8.668 8.668-8.668s8.668 3.88 8.668 8.668c0 4.787-3.881 8.668-8.668 8.668S10.296 58.08 10.296 53.293z" data-fill-palette-color="accent"></path></svg></g></g></svg></g><defs></defs></svg><rect width="395.52" height="247.2" fill="none" stroke="none" visibility="hidden"></rect></g></svg></g></svg>